<svg width="439" height="76" viewBox="0 0 439 76" fill="none" xmlns="http://www.w3.org/2000/svg">
  <path xmlns="http://www.w3.org/2000/svg" fill-rule="evenodd" clip-rule="evenodd" d="M4.18637 27.7139L29.9866 1.91367C31.5063 0.394011 33.9702 0.394012 35.4898 1.91367L39.4152 5.83908C40.9349 7.35874 40.9349 9.82259 39.4152 11.3422L15.7692 34.9883C14.2495 36.5079 14.2495 38.9718 15.7692 40.4914L33.0779 57.8002C34.5976 59.3199 37.0615 59.3199 38.5811 57.8002L50.303 46.0783C51.8227 44.5587 54.2865 44.5587 55.8062 46.0783L59.3363 49.6084C60.8559 51.1281 60.8559 53.5919 59.3362 55.1116L45.4601 68.9877C40.1413 74.3065 31.5178 74.3065 26.199 68.9877L4.18637 46.975C-1.13243 41.6562 -1.13244 33.0327 4.18637 27.7139Z" fill="white"/>
  <path d="M27.7223 40.4703C26.2026 38.9507 26.2026 36.4868 27.7223 34.9672L33.092 29.5974C34.6117 28.0778 37.0755 28.0778 38.5952 29.5974L43.965 34.9672C45.4846 36.4868 45.4846 38.9507 43.965 40.4703L38.5952 45.8401C37.0755 47.3597 34.6117 47.3597 33.092 45.8401L27.7223 40.4703Z" fill="#4363FF"/>
  <path d="M404.716 39.1833C404.716 39.7783 404.234 40.2606 403.639 40.2606H382.184C381.57 40.2606 381.077 40.7739 381.138 41.3848C381.314 43.1593 381.714 44.5945 382.338 45.6905C383.113 46.9833 384.303 47.927 385.906 48.5217C387.509 49.0905 389.681 49.375 392.421 49.375C394.978 49.375 397.908 49.0122 401.21 48.2866C401.891 48.137 402.544 48.65 402.544 49.3474V56.402C402.544 56.8987 402.205 57.332 401.721 57.4432C399.903 57.8607 398.174 58.1706 396.533 58.3729C394.671 58.6056 392.783 58.722 390.87 58.722C385.802 58.722 381.665 57.9592 378.459 56.4337C375.279 54.9082 372.913 52.5165 371.362 49.2586C369.836 46.0007 369.073 41.7732 369.073 36.5761C369.073 29.5174 370.663 24.1263 373.844 20.403C377.05 16.6539 381.614 14.7793 387.535 14.7793C393.171 14.7793 397.438 16.6668 400.333 20.4418C403.255 24.191 404.716 29.6854 404.716 36.9252V39.1833ZM387.457 22.5362C386.035 22.5362 384.858 22.8594 383.928 23.5058C383.023 24.1522 382.312 25.2511 381.795 26.8025C381.372 28.1383 381.121 29.8959 381.043 32.0752C381.022 32.6739 381.508 33.1631 382.107 33.1631H392.536C393.135 33.1631 393.621 32.6739 393.6 32.0752C393.525 29.8959 393.288 28.1383 392.887 26.8025C392.421 25.2511 391.749 24.1522 390.87 23.5058C389.991 22.8594 388.853 22.5362 387.457 22.5362Z" fill="#FFFFF"/>
  <path d="M325.852 16.5965C325.852 16.0015 326.334 15.5192 326.929 15.5192H334.813C335.33 15.5192 335.773 15.8854 335.871 16.3924L336.49 19.5978C336.528 19.7968 336.702 19.9406 336.905 19.9406C337.028 19.9406 337.145 19.8867 337.226 19.7945C338.646 18.1863 340.297 16.9681 342.18 16.1397C344.145 15.2606 346.304 14.821 348.657 14.821C352.69 14.821 355.884 16.088 358.236 18.6219C360.615 21.13 361.805 25.1248 361.805 30.6063V56.8719C361.805 57.4669 361.322 57.9493 360.727 57.9493H351.014C350.419 57.9493 349.937 57.4669 349.937 56.8719V31.4208C349.937 29.1971 349.471 27.6199 348.54 26.6891C347.635 25.7582 346.317 25.2928 344.584 25.2928C343.292 25.2928 342.025 25.5643 340.784 26.1073C339.66 26.5756 338.716 27.2561 337.952 28.1486C337.797 28.3301 337.72 28.564 337.72 28.803V56.8719C337.72 57.4669 337.237 57.9493 336.642 57.9493H326.929C326.334 57.9493 325.852 57.4669 325.852 56.8719V16.5965Z" fill="#FFFFF"/>
  <path d="M256.877 16.5936C256.877 15.9986 257.359 15.5163 257.954 15.5163H265.695C266.224 15.5163 266.674 15.8996 266.759 16.4212L267.493 20.9473C267.521 21.1255 267.675 21.2564 267.856 21.2564C267.996 21.2564 268.124 21.176 268.188 21.0506C269.238 18.9829 270.652 17.4484 272.429 16.4471C274.291 15.4129 276.411 14.8958 278.79 14.8958C279.501 14.8958 280.275 14.9528 281.114 15.0668C281.633 15.1374 282.009 15.5884 282.009 16.1122V24.808C282.009 25.4947 281.373 26.0133 280.69 25.9455C279.934 25.8705 279.042 25.8329 278.014 25.8329C276.204 25.8329 274.433 26.1949 272.701 26.9189C271.126 27.5632 269.881 28.4388 268.967 29.5456C268.819 29.7253 268.745 29.9537 268.745 30.1868V56.8691C268.745 57.4641 268.263 57.9464 267.668 57.9464H257.954C257.359 57.9464 256.877 57.4641 256.877 56.8691V16.5936Z" fill="#FFFFF"/>
  <path d="M165.813 16.5894C165.813 15.9944 166.296 15.5121 166.891 15.5121H174.915C175.438 15.5121 175.886 15.8882 175.976 16.4037L176.578 19.845C176.611 20.0307 176.772 20.1662 176.96 20.1662C177.095 20.1662 177.22 20.096 177.293 19.9825C178.314 18.3901 179.658 17.1456 181.327 16.249C183.06 15.2923 185.063 14.814 187.339 14.814C190.312 14.814 193.001 15.5638 195.406 17.0635C197.836 18.5373 199.763 20.8643 201.185 24.0446C202.633 27.1991 203.357 31.181 203.357 35.9902C203.357 43.4627 201.508 49.1252 197.811 52.9778C194.139 56.8045 188.554 58.7179 181.056 58.7179C180.435 58.7179 179.711 58.6814 178.884 58.6084C178.243 58.5519 177.681 59.05 177.681 59.694V73.93C177.681 74.525 177.199 75.0073 176.604 75.0073H166.891C166.296 75.0073 165.813 74.525 165.813 73.93V16.5894ZM181.676 49.6035C183.874 49.6035 185.671 49.2028 187.067 48.4012C188.464 47.5738 189.511 46.2422 190.209 44.4064C190.933 42.5448 191.295 40.0755 191.295 36.9986C191.295 33.8442 190.972 31.3749 190.325 29.5908C189.705 27.7809 188.826 26.5139 187.688 25.7899C186.576 25.066 185.206 24.704 183.577 24.704C182.439 24.704 181.353 24.9238 180.319 25.3633C179.412 25.726 178.625 26.2476 177.957 26.9281C177.774 27.1143 177.681 27.3688 177.681 27.6298V48.3397C177.681 48.85 178.039 49.2937 178.543 49.3722C179.534 49.5264 180.578 49.6035 181.676 49.6035Z" fill="#FFFFF"/>
  <path d="M146.273 16.2926C146.405 15.8301 146.828 15.5112 147.309 15.5112H156.741C157.469 15.5112 157.987 16.2176 157.769 16.9117L145.104 57.1872C144.963 57.636 144.547 57.9413 144.077 57.9413H130.454C129.984 57.9413 129.568 57.636 129.427 57.1872L116.762 16.9117C116.544 16.2176 117.062 15.5112 117.79 15.5112H127.805C128.285 15.5112 128.708 15.8295 128.84 16.2914L136.538 43.1161C136.837 44.157 138.312 44.1561 138.609 43.1149L146.273 16.2926Z" fill="#FFFFF"/>
  <path d="M99.0824 58.7557C92.4632 58.7557 87.4341 56.9587 83.9952 53.3647C80.5564 49.7448 78.8369 44.2245 78.8369 36.8037C78.8369 29.2796 80.6986 23.7334 84.4219 20.1652C88.171 16.5971 93.5362 14.813 100.517 14.813C103.284 14.813 105.824 15.0494 108.139 15.5222C108.629 15.6223 108.972 16.0586 108.972 16.5588V23.9765C108.972 24.6544 108.354 25.1628 107.684 25.0555C105.896 24.7688 104.166 24.6254 102.495 24.6254C99.8322 24.6254 97.6732 25.0262 96.0184 25.8278C94.3636 26.6293 93.1354 27.9092 92.3339 29.6674C91.5323 31.3998 91.1316 33.7139 91.1316 36.6098C91.1316 39.635 91.5065 42.0526 92.2563 43.8625C93.032 45.6724 94.1697 46.9782 95.6693 47.7797C97.169 48.5554 99.0824 48.9432 101.409 48.9432C103.203 48.9432 105.258 48.6363 107.575 48.0224C108.274 47.8372 108.972 48.3544 108.972 49.0775V56.4236C108.972 56.8893 108.674 57.3044 108.227 57.4364C106.945 57.8153 105.59 58.1129 104.163 58.3291C102.457 58.6135 100.763 58.7557 99.0824 58.7557Z" fill="#FFFFF"/>
  <path d="M310.274 49.6658C312.021 49.6658 314.061 49.3537 316.393 48.7296C317.092 48.5425 317.791 49.0597 317.791 49.7834V56.2966C317.791 56.7249 317.539 57.115 317.14 57.2715C314.288 58.3907 310.851 58.9504 306.829 58.9504C302.053 58.9504 298.568 57.7786 296.376 55.4352C294.209 53.0663 293.126 49.5257 293.126 44.8133V25.2965C293.126 24.7015 292.644 24.2192 292.049 24.2192H288.488C287.893 24.2192 287.41 23.7368 287.41 23.1418V18.396C287.41 18.0154 287.611 17.6631 287.938 17.4691L294.526 15.5846C294.735 15.4606 294.897 15.2694 294.983 15.0422L297.168 7.0688C297.327 6.65157 297.728 6.37598 298.174 6.37598H304.051C304.622 6.37598 305.093 6.82084 305.127 7.39044L305.54 14.455C305.573 15.0246 306.044 15.4695 306.615 15.4695H316.244C316.839 15.4695 317.321 15.9519 317.321 16.5469V23.1418C317.321 23.7368 316.839 24.2192 316.244 24.2192H306.145C305.55 24.2192 305.067 24.7015 305.067 25.2965V44.8133C305.067 46.469 305.537 47.6917 306.477 48.4813C307.442 49.271 308.708 49.6658 310.274 49.6658Z" fill="#FFFFF"/>
  <path d="M247.766 56.9452C247.766 57.5402 247.283 58.0225 246.688 58.0225L238.678 58.0225C238.155 58.0225 237.707 57.6466 237.617 57.1313L237.016 53.7066C236.983 53.5211 236.822 53.3857 236.634 53.3857C236.499 53.3857 236.375 53.4558 236.302 53.569C235.283 55.1553 233.94 56.3951 232.273 57.2883C230.543 58.2415 228.542 58.718 226.27 58.718C223.301 58.718 220.615 57.971 218.214 56.4769C215.787 55.0086 213.863 52.6902 212.443 49.5218C210.997 46.3791 210.274 42.4121 210.274 37.6207C210.274 30.1761 212.12 24.5347 215.813 20.6965C219.479 16.8841 225.056 14.9779 232.544 14.9779C233.448 14.9779 240.763 15.3143 242.379 15.4265C243.464 15.5018 245.519 15.6276 246.754 15.7022C247.323 15.7366 247.766 16.208 247.766 16.7781L247.766 56.9452ZM231.925 24.0582C229.73 24.0582 227.935 24.4575 226.541 25.256C225.147 26.0803 224.101 27.407 223.404 29.2359C222.681 31.0906 222.319 33.5507 222.319 36.6161C222.319 39.7588 222.642 42.2189 223.288 43.9963C223.907 45.7995 224.785 47.0617 225.921 47.783C227.032 48.5043 228.4 48.8649 230.027 48.8649C231.163 48.8649 232.247 48.6459 233.28 48.208C234.185 47.8469 234.971 47.3277 235.638 46.6503C235.821 46.4641 235.914 46.2092 235.914 45.9478L235.914 25.321C235.914 24.8105 235.556 24.3667 235.052 24.2884C234.063 24.1349 233.021 24.0582 231.925 24.0582Z" fill="#FFFFF"/>
  <path d="M412.878 16.5966C412.878 16.0016 413.36 15.5192 413.955 15.5192H421.696C422.225 15.5192 422.675 15.9025 422.76 16.4241L423.494 20.9502C423.522 21.1284 423.676 21.2593 423.857 21.2593C423.997 21.2593 424.125 21.1789 424.189 21.0535C425.239 18.9859 426.653 17.4514 428.43 16.4501C430.292 15.4158 432.412 14.8987 434.791 14.8987C435.501 14.8987 436.276 14.9557 437.115 15.0698C437.634 15.1404 438.01 15.5913 438.01 16.1151V24.811C438.01 25.4977 437.374 26.0162 436.691 25.9484C435.935 25.8734 435.043 25.8359 434.015 25.8359C432.205 25.8359 430.434 26.1979 428.702 26.9218C427.127 27.5662 425.882 28.4417 424.968 29.5486C424.82 29.7283 424.746 29.9567 424.746 30.1898V56.872C424.746 57.467 424.264 57.9493 423.669 57.9493H413.955C413.36 57.9493 412.878 57.467 412.878 56.872V16.5966Z" fill="#FFFFF"/>
</svg>
