<svg width="439" height="76" viewBox="0 0 439 76" fill="none" xmlns="http://www.w3.org/2000/svg">
  <path xmlns="http://www.w3.org/2000/svg" fill-rule="evenodd" clip-rule="evenodd" d="M4.18637 27.7139L29.9866 1.91367C31.5063 0.394011 33.9702 0.394012 35.4898 1.91367L39.4152 5.83908C40.9349 7.35874 40.9349 9.82259 39.4152 11.3422L15.7692 34.9883C14.2495 36.5079 14.2495 38.9718 15.7692 40.4914L33.0779 57.8002C34.5976 59.3199 37.0615 59.3199 38.5811 57.8002L50.303 46.0783C51.8227 44.5587 54.2865 44.5587 55.8062 46.0783L59.3363 49.6084C60.8559 51.1281 60.8559 53.5919 59.3362 55.1116L45.4601 68.9877C40.1413 74.3065 31.5178 74.3065 26.199 68.9877L4.18637 46.975C-1.13243 41.6562 -1.13244 33.0327 4.18637 27.7139Z" fill="white"/>
  <path d="M27.7223 40.4703C26.2026 38.9507 26.2026 36.4868 27.7223 34.9672L33.092 29.5974C34.6117 28.0778 37.0755 28.0778 38.5952 29.5974L43.965 34.9672C45.4846 36.4868 45.4846 38.9507 43.965 40.4703L38.5952 45.8401C37.0755 47.3597 34.6117 47.3597 33.092 45.8401L27.7223 40.4703Z" fill="#4363FF"/>
</svg>
