<?xml version="1.0" encoding="UTF-8" standalone="no"?>
<svg
   width="60.278721"
   height="72.202873"
   viewBox="0 0 60.278721 72.202873"
   fill="none"
   version="1.1"
   id="svg338"
   sodipodi:docname="icon2.svg"
   inkscape:version="1.2.2 (b0a84865, 2022-12-01)"
   xmlns:inkscape="http://www.inkscape.org/namespaces/inkscape"
   xmlns:sodipodi="http://sodipodi.sourceforge.net/DTD/sodipodi-0.dtd"
   xmlns="http://www.w3.org/2000/svg"
   xmlns:svg="http://www.w3.org/2000/svg">
  <defs
     id="defs342" />
  <sodipodi:namedview
     id="namedview340"
     pagecolor="#ffffff"
     bordercolor="#000000"
     borderopacity="0.25"
     inkscape:showpageshadow="2"
     inkscape:pageopacity="0.0"
     inkscape:pagecheckerboard="0"
     inkscape:deskcolor="#d1d1d1"
     showgrid="false"
     inkscape:zoom="2.8382688"
     inkscape:cx="219.14767"
     inkscape:cy="37.522873"
     inkscape:window-width="1390"
     inkscape:window-height="1051"
     inkscape:window-x="2947"
     inkscape:window-y="180"
     inkscape:window-maximized="0"
     inkscape:current-layer="svg338" />
  <path
     fill-rule="evenodd"
     clip-rule="evenodd"
     d="M 3.9891038,26.939974 29.789334,1.1397439 c 1.5197,-1.51965902 3.9836,-1.51965802 5.5032,0 l 3.9254,3.92541 c 1.5197,1.51966 1.5197,3.98351 0,5.5031201 l -23.646,23.6461 c -1.5197,1.5196 -1.5197,3.9835 0,5.5031 l 17.3087,17.3088 c 1.5197,1.5197 3.9836,1.5197 5.5032,0 l 11.7219,-11.7219 c 1.5197,-1.5196 3.9835,-1.5196 5.5032,0 l 3.5301,3.5301 c 1.5196,1.5197 1.5196,3.9835 -1e-4,5.5032 l -13.8761,13.8761 c -5.3188,5.3188 -13.9423,5.3188 -19.2611,0 L 3.9891038,46.201074 c -5.3188,-5.3188 -5.31881,-13.9423 0,-19.2611 z"
     fill="#ffffff"
     id="path334" />
  <path
     d="m 27.525034,39.696374 c -1.5197,-1.5196 -1.5197,-3.9835 0,-5.5031 l 5.3697,-5.3698 c 1.5197,-1.5196 3.9835,-1.5196 5.5032,0 l 5.3698,5.3698 c 1.5196,1.5196 1.5196,3.9835 0,5.5031 l -5.3698,5.3698 c -1.5197,1.5196 -3.9835,1.5196 -5.5032,0 z"
     fill="#4363ff"
     id="path336" />
</svg>
